<svg xmlns="http://www.w3.org/2000/svg" viewBox="0 0 128 128" x="0px" y="0px" fill="#F3F1EC"><path d="m64,20C29.81,20,2,39.74,2,64s27.81,44,62,44,62-19.74,62-44-27.81-44-62-44Zm57.93,42h-15.97c-.34-8.01-2.75-15.46-6.66-21.8,2.34-1.14,4.56-2.41,6.65-3.78,9.31,6.73,15.27,15.69,15.98,25.58Zm-26.31,24.15c-3.68-1.55-7.55-2.81-11.56-3.78,1.12-5,1.8-10.52,1.92-16.37h15.98c-.35,7.43-2.63,14.33-6.33,20.15Zm-69.57-20.15h15.98c.13,5.85.8,11.37,1.92,16.37-4.02.97-7.89,2.24-11.56,3.78-3.7-5.83-5.98-12.73-6.33-20.15Zm6.33-24.15c3.68,1.55,7.55,2.81,11.56,3.78-1.12,5-1.8,10.52-1.92,16.37h-15.98c.35-7.43,2.63-14.33,6.33-20.15Zm33.62-17.58c5.43,1.41,10.21,8.44,13.1,18.33-4.26.79-8.67,1.24-13.1,1.35v-19.67Zm-4,0v19.67c-4.44-.1-8.84-.55-13.1-1.35,2.89-9.89,7.67-16.92,13.1-18.33Zm-14.12,22.24c4.58.87,9.31,1.36,14.12,1.47v14.03h-15.98c.13-5.5.79-10.75,1.86-15.5Zm14.12,19.5v14.03c-4.78.11-9.53.59-14.12,1.46-1.07-4.75-1.73-10-1.86-15.5h15.98Zm0,18.06v19.67c-5.43-1.41-10.21-8.44-13.1-18.33,4.26-.79,8.67-1.24,13.1-1.35Zm4,19.67v-19.67c4.44.1,8.84.55,13.1,1.35-2.89,9.89-7.67,16.92-13.1,18.33Zm14.12-22.24c-4.59-.87-9.34-1.36-14.12-1.46v-14.03h15.98c-.13,5.5-.79,10.75-1.86,15.5Zm-14.12-19.5v-14.03c4.8-.11,9.53-.6,14.12-1.47,1.07,4.75,1.73,9.99,1.86,15.5h-15.98Zm8.99-36.29c7.23,2.3,13.56,6.81,18.27,12.79-3.25,1.32-6.66,2.4-10.19,3.25-1.93-6.7-4.71-12.23-8.08-16.04Zm-30.05,16.04c-3.53-.85-6.94-1.94-10.19-3.25,4.71-5.98,11.04-10.49,18.27-12.79-3.37,3.81-6.15,9.34-8.08,16.04Zm0,44.49c1.93,6.7,4.71,12.23,8.08,16.04-7.23-2.3-13.56-6.81-18.27-12.79,3.25-1.32,6.66-2.4,10.19-3.25Zm38.13,0c3.53.85,6.94,1.94,10.19,3.25-4.71,5.98-11.04,10.49-18.27,12.79,3.37-3.81,6.15-9.34,8.08-16.04Zm2.91-24.25c-.13-5.85-.8-11.37-1.92-16.37,4.02-.97,7.89-2.24,11.56-3.78,3.7,5.83,5.98,12.73,6.33,20.15h-15.98Zm16.32-28c-1.68,1.02-3.45,1.97-5.28,2.85-2.76-3.68-6.07-6.9-9.8-9.5,5.53,1.67,10.61,3.93,15.09,6.64Zm-71.31,2.85c-1.84-.88-3.6-1.83-5.28-2.85,4.47-2.72,9.55-4.97,15.09-6.64-3.73,2.6-7.04,5.82-9.8,9.5Zm-8.93-.43c2.09,1.37,4.32,2.63,6.65,3.78-3.91,6.34-6.31,13.8-6.66,21.8H6.07c.71-9.9,6.67-18.85,15.98-25.58Zm-15.98,29.58h15.97c.34,8.01,2.75,15.46,6.66,21.8-2.34,1.14-4.56,2.41-6.65,3.78-9.31-6.73-15.27-15.69-15.98-25.58Zm19.63,28c1.68-1.02,3.45-1.97,5.28-2.85,2.76,3.68,6.07,6.9,9.8,9.5-5.53-1.67-10.61-3.93-15.09-6.64Zm71.31-2.85c1.84.88,3.6,1.83,5.28,2.85-4.47,2.72-9.55,4.97-15.09,6.64,3.73-2.6,7.04-5.82,9.8-9.5Zm8.93.43c-2.09-1.37-4.32-2.63-6.65-3.78,3.91-6.34,6.31-13.8,6.66-21.8h15.97c-.71,9.9-6.67,18.85-15.98,25.58Z"/></svg>
