<svg xmlns="http://www.w3.org/2000/svg" version="1.1" x="0px" y="0px" viewBox="0 0 100 100" fill="#F3F1EC" xml:space="preserve"><path d="M49.8,50.7c-4.3,0-7.5-2.6-7.9-6.2c-0.2-1.7,0.3-3.2,1.4-4.6c3-3.8,9.7-3.8,12.6,0c1.5,1.9,1.9,4.1,0.9,6.3  c-1.1,2.6-3.3,3.9-6,4.3C50.4,50.7,49.9,50.7,49.8,50.7z"/><path d="M63.1,71c-3.9,0-6.4-1.7-7.2-4.4c-0.8-2.6,0.3-5.4,2.9-7c1.8-1.1,3.7-1.6,5.9-1.2c4.7,0.9,6.5,6,3.5,9.7  C66.6,70,64.6,71,63.1,71z"/><path d="M36,58.3c4.2,0.1,7.6,3.2,7.6,6.9c0,3.3-2.9,6-6.5,5.9c-3.9,0-7.3-3.3-7.3-7C29.7,60.7,32.4,58.2,36,58.3z"/><path d="M81.3,44.2c0,3-1.4,5.2-3.6,6.1c-2.2,0.9-4.9,0.2-6.7-1.7c-1.7-1.8-2.5-4.1-2.1-6.6c0.4-2.4,1.8-4,4.1-4.7  c2.4-0.7,4.5,0.1,6.2,1.9C80.6,40.7,81.3,42.5,81.3,44.2z"/><path d="M23.5,50.6c-2.2,0-3.8-1.1-4.8-3c-1.7-3.2-0.5-7.5,2.5-9.4c3.8-2.5,8.3-0.4,8.9,4.1  C30.8,46.6,27.6,50.6,23.5,50.6z"/><path d="M62.1,30.4c-2.5-0.1-4.6-1-6.1-3c-1.3-1.6-1.6-3.5-0.6-5.4c1-1.9,2.8-2.7,4.9-2.6c2.4,0.1,4.3,1.2,5.7,3.1  c1.2,1.6,1.7,3.4,0.8,5.3C66,29.7,64.2,30.2,62.1,30.4z"/><path d="M38.9,19.3c2.1,0,4,0.9,5,2.9c1.1,2.1,0.4,4-1.1,5.6c-1.9,2.1-4.4,3-7.2,2.4c-2.9-0.6-4.3-3.2-3.3-6  C33.2,21.5,36.4,19.2,38.9,19.3z"/><path d="M88.8,63.5c-0.1,2.2-1.2,4.5-3.4,6.4c-1.2,1-2.6,1.6-4.2,0.9c-1.6-0.7-2.2-2.2-2.2-3.8  c-0.2-2.9,0.8-5.4,3.1-7.3c1.4-1.2,3-1.9,4.8-1C88.6,59.5,88.9,61.1,88.8,63.5z"/><path d="M20.4,66.7c-0.1,0.5-0.2,1.3-0.4,2c-0.8,2.2-2.6,2.9-4.7,1.9c-3.1-1.4-5.3-6.4-4.4-9.7  c0.7-2.6,2.9-3.5,5.2-2.1C19,60.6,20.2,63.3,20.4,66.7z"/><path d="M49.8,77.3c0,0,0.2,0,0.4,0c3.5,0.3,5.7,2.5,5.3,5.2c-0.4,2.9-3.6,5-6.7,4.5c-3-0.5-5.3-3.1-5-5.6  C44,79,46.5,77.3,49.8,77.3z"/><path d="M64,84c0.2-3.5,4.1-7,7.6-6.7c2.2,0.2,3.2,1.6,2.7,3.8c-0.8,2.8-4.2,5.7-7,6C65.2,87.3,63.9,86.1,64,84z"/><path d="M84.9,27.8c0,1.8-1.2,2.8-3,2.5c-3.5-0.7-6.9-5-6.7-8.5c0.1-1.8,1.1-2.6,2.9-2.3  C81.1,20,84.9,24.6,84.9,27.8z"/><path d="M28.1,77.3c3.2,0.1,6.5,2.9,7.2,6.1c0.5,2.5-1.1,4.2-3.6,3.6c-3.1-0.8-5.4-2.7-6.5-5.8  C24.4,79,25.8,77.2,28.1,77.3z"/><path d="M24.4,21.9c0,3.4-3.3,7.5-6.5,8.3c-2.1,0.5-3.6-0.8-3.1-2.9c0.8-3.7,3-6.3,6.4-7.7  C23.2,18.8,24.4,19.8,24.4,21.9z"/><path d="M91.1,39.6c0.5-1.6,1.4-2.2,2.1-2.3c0.8-0.1,2,0.6,2.5,1.4c1.7,2.4,2.2,5.1,1.9,8c-0.1,0.8-0.2,1.7-0.5,2.4  c-0.8,1.9-2.4,2.1-3.7,0.6c-1.4-1.7-2-3.8-2.3-5.9C91.1,43.2,90.8,40.6,91.1,39.6z"/><path d="M8.5,42.2c-0.1,2.5-0.6,5-2.1,7c-0.5,0.7-1.6,1.4-2.3,1.3c-0.6,0-1.4-1.2-1.6-2C1.7,45.2,2.1,42,3.7,39  c0.5-1,1.2-2,2.6-1.8c1.3,0.2,1.7,1.4,1.9,2.5C8.4,40.5,8.4,41.3,8.5,42.2z"/><path d="M49.7,14.2c-2.5,0-4.3-1.3-4.3-3.2c0-2,2.1-3.9,4.4-3.9c2.3,0,4.2,1.8,4.2,3.8  C54.1,12.9,52.3,14.2,49.7,14.2z"/><path d="M66.7,14.2c-2.7,0-6.1-2.6-6.9-5.1c-0.4-1.3,0.2-2.2,1.4-1.9c2.9,0.5,5.3,2,7,4.4  C69.2,13.1,68.5,14.2,66.7,14.2z"/><path d="M32.8,14.2c-1.7,0-2.4-1-1.4-2.5c1.7-2.5,4.1-4.1,7-4.6c1.3-0.2,1.8,0.5,1.5,1.8  C39.1,11.5,35.5,14.3,32.8,14.2z"/><path d="M87,78.1c-0.2,0.6-0.4,1.3-0.7,1.7c-1.6,3-3.8,5.3-6.8,6.9c-2.3,1.4-1.7-0.9-1.5-1.4c1.3-2.9,3.3-5.4,6-7.2  C86.1,76.6,87.4,76.8,87,78.1z"/><path d="M15.8,78.2c2.5,1.8,4.5,4.1,5.8,6.9c0.8,1.4,0.3,2.6-1.5,1.5c-2.9-1.7-5.1-4-6.8-6.9  C11.5,75.7,14.2,76.9,15.8,78.2z"/><path d="M57.3,91.1c1-0.1,1.7,0.3,1.8,1.2c0.1,0.7-0.2,1.4-0.6,2.1c-1,1.4-2.4,2.1-4,2.3c-1.6,0.2-2.5-0.6-2-2.2  C52.9,92.7,54.9,91.4,57.3,91.1z"/><path d="M42.5,91.1c2.4,0.3,4.5,1.9,4.8,3.7c0.2,1.4-0.3,2-1.6,1.9c-2.1-0.2-3.7-1.2-4.9-2.9  c-0.3-0.4-0.4-1.3-0.2-1.6C40.9,91.6,41.6,91.1,42.5,91.1z"/><path d="M96.9,58.3c0.9,2-1.8,11.1-3.8,12.6C92,68.5,94.7,59.6,96.9,58.3z"/><path d="M3,58.4C5,59.7,7.9,68.7,7,70.9C5.2,69.6,2.4,60.8,3,58.4z"/><path d="M78.6,14c-1.8,0.4-8.9-4.3-10.2-6.7C70.8,7.1,77.9,11.7,78.6,14z"/><path d="M31.5,7.3c-3,3-6,5.8-10.2,6.8C23.7,10.4,27.4,8.5,31.5,7.3z"/><path d="M92.9,30.3c-3.2-3-5.5-6.6-7.2-10.8C87.8,20,92.8,27.5,92.9,30.3z"/><path d="M69.7,91.6c-0.5,2-6.7,5.3-9.6,5C61.9,94,67.7,91,69.7,91.6z"/><path d="M30.1,91.2c0.6-1.3,11.7,5,10,5.3C37.1,97,29.6,92.9,30.1,91.2z"/><path d="M14,19.5c-1.6,4.1-3.7,7.7-7,10.6C8.5,26,10.8,22.4,14,19.5z"/><ellipse cx="50.3" cy="3.9" rx="4.1" ry="0.5"/></svg>
